<svg xmlns="http://www.w3.org/2000/svg" width="43" height="60" viewBox="0 0 43 60" fill="none">
<rect y="0.000976562" width="42.4991" height="59.9988" rx="4" fill="#616467"/>
<path d="M38.748 0H3.74992C1.68747 0 0 1.68747 0 3.74992V56.2489C0 58.3113 1.68747 59.9988 3.74992 59.9988H38.748C40.8104 59.9988 42.4979 58.3113 42.4979 56.2489V3.74992C42.4979 1.68747 40.8104 0 38.748 0ZM39.9979 56.2501C39.9979 56.9276 39.4254 57.5001 38.748 57.5001H3.74992C3.07244 57.5001 2.49995 56.9276 2.49995 56.2501V3.75117C2.49995 3.07369 3.07244 2.5012 3.74992 2.5012H38.748C39.4254 2.5012 39.9979 3.07369 39.9979 3.75117V56.2501ZM21.2471 49.999C20.2108 49.999 19.3721 50.839 19.3721 51.8739C19.3721 52.9102 20.2108 53.7489 21.2471 53.7489C22.282 53.7489 23.122 52.9102 23.122 51.8739C23.122 50.839 22.282 49.999 21.2471 49.999Z" fill="#3A3A3A"/>
</svg>